<?xml version="1.0" standalone="no"?>
<!DOCTYPE svg PUBLIC "-//W3C//DTD SVG 20010904//EN"
 "http://www.w3.org/TR/2001/REC-SVG-20010904/DTD/svg10.dtd">
<svg version="1.0" xmlns="http://www.w3.org/2000/svg"
 width="132.000000pt" height="132.000000pt" viewBox="0 0 132.000000 132.000000"
 preserveAspectRatio="xMidYMid meet">
<metadata>
Created by potrace 1.14, written by Peter Selinger 2001-2017
</metadata>
<g transform="translate(0.000000,132.000000) scale(0.100000,-0.100000)"
fill="#000000" stroke="none">
<path d="M760 1120 c0 -7 -7 -10 -16 -6 -14 5 -15 4 -4 -9 9 -11 9 -15 1 -15
-7 0 -10 -4 -7 -9 4 -5 -4 -7 -16 -3 -14 3 -19 2 -14 -6 4 -7 2 -12 -4 -12 -6
0 -9 -4 -6 -9 3 -5 -2 -15 -11 -22 -10 -8 -14 -9 -10 -2 4 6 2 15 -4 19 -7 4
-9 3 -5 -4 3 -6 2 -13 -4 -17 -6 -4 -8 -10 -6 -14 3 -4 -3 -7 -13 -8 -18 -2
-21 9 -21 62 0 17 -3 26 -7 20 -5 -5 -15 -10 -23 -10 -16 0 -21 -36 -6 -47 6
-4 4 -13 -4 -23 -12 -14 -16 -12 -42 17 -16 18 -26 26 -22 18 7 -13 5 -13 -9
-1 -12 9 -17 10 -17 2 0 -8 -6 -9 -18 -2 -11 6 -24 6 -36 -1 -14 -8 -17 -7
-12 1 9 14 -30 9 -45 -6 -7 -7 -2 -15 16 -27 14 -9 23 -21 20 -26 -3 -4 1 -10
7 -13 10 -3 10 -7 2 -18 -9 -11 -9 -17 2 -27 9 -8 14 -9 14 -2 0 6 4 9 10 5 5
-3 6 -13 3 -22 -5 -12 -3 -14 8 -9 8 4 5 0 -5 -8 -14 -12 -23 -13 -33 -5 -10
9 -13 8 -13 -1 0 -7 -7 -10 -15 -6 -11 4 -15 -2 -16 -22 0 -15 -3 -21 -6 -14
-2 6 -9 12 -15 12 -6 0 -8 -7 -5 -14 4 -10 1 -13 -9 -9 -8 3 -14 -1 -14 -11 0
-8 -9 -20 -20 -26 -16 -9 -18 -13 -8 -24 7 -8 15 -14 18 -14 28 1 38 -28 16
-44 -5 -3 4 -15 21 -25 26 -15 28 -20 16 -31 -8 -8 -22 -11 -31 -7 -13 5 -14
4 -5 -6 8 -8 9 -18 2 -31 -7 -13 -6 -18 3 -18 10 0 10 -2 -1 -9 -10 -6 -5 -12
17 -22 17 -7 28 -17 26 -21 -10 -16 -13 -48 -3 -43 5 4 9 -2 9 -12 0 -12 3
-14 8 -6 6 9 11 7 20 -7 7 -11 8 -20 3 -20 -5 0 -8 -6 -7 -12 3 -21 17 -39 26
-33 4 3 11 -7 14 -20 4 -14 11 -23 16 -20 6 3 10 1 10 -4 0 -6 8 -11 18 -11
13 0 14 -2 4 -9 -10 -6 -6 -11 16 -19 21 -7 33 -7 41 1 8 8 11 6 11 -6 0 -9 5
-17 11 -17 5 0 7 -5 3 -12 -5 -8 -2 -9 10 -5 9 4 15 3 12 -2 -3 -5 1 -11 9
-15 8 -3 15 -13 15 -23 0 -12 3 -14 11 -6 14 14 69 -13 69 -34 0 -13 3 -13 15
-3 11 9 15 9 15 1 0 -7 5 -9 12 -5 17 11 48 12 42 2 -3 -4 2 -8 11 -8 9 0 13
-5 10 -10 -3 -6 4 -10 17 -10 15 0 19 -3 10 -8 -6 -5 12 -8 43 -8 30 1 54 5
54 11 -3 25 2 34 16 29 9 -4 15 0 15 7 0 9 3 10 8 4 4 -5 14 -11 22 -13 8 -2
12 0 8 4 -4 4 0 13 10 20 9 7 12 14 6 14 -6 0 -11 7 -11 15 0 8 5 11 10 8 6
-4 8 1 4 12 -6 14 -3 16 14 12 15 -4 19 -2 15 9 -3 8 0 14 7 14 8 0 6 4 -3 10
-13 9 -13 10 0 10 13 0 13 1 0 10 -13 9 -13 10 0 10 13 0 13 1 0 10 -13 9 -13
10 0 10 9 0 11 3 5 8 -13 8 -13 51 -1 71 7 10 5 12 -5 6 -12 -7 -12 -6 -1 7
10 13 10 17 0 22 -10 5 -10 7 0 12 6 3 12 10 12 15 0 6 -5 7 -11 3 -7 -4 -7 1
1 16 8 15 8 20 1 16 -6 -4 -11 -3 -11 3 0 5 6 12 13 14 9 4 8 8 -3 16 -13 10
-13 11 0 11 13 0 13 1 0 10 -13 9 -13 10 0 10 13 0 13 1 0 10 -13 9 -13 10 0
10 12 0 13 2 1 9 -11 7 -11 9 0 14 9 4 10 6 2 6 -7 1 -10 8 -6 18 4 11 3 14
-5 9 -7 -4 -12 -2 -12 4 0 6 -5 8 -12 4 -8 -5 -9 -2 -5 9 4 10 1 17 -6 17 -8
0 -6 4 3 10 13 9 13 10 0 10 -13 0 -13 1 0 10 13 9 13 10 0 10 -13 0 -13 1 0
10 11 7 11 10 2 10 -7 0 -10 4 -7 10 14 22 13 49 -3 62 -12 10 -14 10 -8 1 4
-7 4 -13 -1 -13 -4 0 -16 14 -25 31 -10 17 -22 27 -28 24 -5 -3 -10 -2 -10 4
0 20 -58 74 -74 68 -9 -4 -16 -2 -16 3 0 6 -3 9 -7 9 -27 -4 -35 1 -23 16 10
12 10 15 0 15 -10 0 -10 3 0 15 10 12 10 15 -1 15 -9 0 -10 3 -4 8 15 11 17
32 3 32 -9 0 -9 3 0 12 17 17 15 23 -14 36 -20 10 -24 10 -18 0 6 -9 3 -9 -9
1 -13 10 -17 10 -17 1z"/>
</g>
</svg>
